<svg xmlns="http://www.w3.org/2000/svg" xmlns:xlink="http://www.w3.org/1999/xlink" width="378" zoomAndPan="magnify" viewBox="0 0 282.96 283.499989" height="378" preserveAspectRatio="xMidYMid meet" version="1.2"><defs><clipPath id="f7e65d067f"><path d="M 0.230469 0 L 282.691406 0 L 282.691406 283 L 0.230469 283 Z M 0.230469 0 "/></clipPath><clipPath id="f7db497076"><path d="M 57 17.183594 L 197 17.183594 L 197 265.742188 L 57 265.742188 Z M 57 17.183594 "/></clipPath><clipPath id="a6477c821c"><path d="M 131 94 L 254 94 L 254 265.742188 L 131 265.742188 Z M 131 94 "/></clipPath></defs><g id="f3546e699e"><g clip-rule="nonzero" clip-path="url(#f7e65d067f)"><path style=" stroke:none;fill-rule:nonzero;fill:#ffffff;fill-opacity:1;" d="M 0.230469 0 L 283.230469 0 L 283.230469 283 L 0.230469 283 Z M 0.230469 0 "/><path style=" stroke:none;fill-rule:nonzero;fill:#ffffff;fill-opacity:1;" d="M 0.230469 0 L 283.230469 0 L 283.230469 283 L 0.230469 283 Z M 0.230469 0 "/></g><path style=" stroke:none;fill-rule:nonzero;fill:#f1592a;fill-opacity:1;" d="M 113.59375 246.019531 C 112.523438 246.019531 111.65625 246.886719 111.65625 247.957031 C 111.65625 249.027344 112.523438 249.898438 113.59375 249.898438 L 140.746094 249.898438 C 141.816406 249.898438 142.683594 249.027344 142.683594 247.957031 C 142.683594 246.886719 141.816406 246.019531 140.746094 246.019531 Z M 113.59375 246.019531 "/><path style=" stroke:none;fill-rule:nonzero;fill:#f1592a;fill-opacity:1;" d="M 131.050781 32.695312 L 107.777344 32.695312 C 106.707031 32.695312 105.839844 33.566406 105.839844 34.636719 C 105.839844 35.707031 106.707031 36.574219 107.777344 36.574219 L 131.050781 36.574219 C 132.121094 36.574219 132.988281 35.707031 132.988281 34.636719 C 132.988281 33.566406 132.121094 32.695312 131.050781 32.695312 Z M 131.050781 32.695312 "/><path style=" stroke:none;fill-rule:nonzero;fill:#f1592a;fill-opacity:1;" d="M 144.625 34.636719 C 144.625 34.894531 144.574219 35.140625 144.476562 35.378906 C 144.378906 35.617188 144.238281 35.824219 144.054688 36.007812 C 143.875 36.1875 143.664062 36.328125 143.425781 36.425781 C 143.1875 36.527344 142.941406 36.574219 142.683594 36.574219 C 142.425781 36.574219 142.179688 36.527344 141.941406 36.425781 C 141.703125 36.328125 141.496094 36.1875 141.3125 36.007812 C 141.132812 35.824219 140.992188 35.617188 140.894531 35.378906 C 140.792969 35.140625 140.746094 34.894531 140.746094 34.636719 C 140.746094 34.378906 140.792969 34.132812 140.894531 33.894531 C 140.992188 33.65625 141.132812 33.445312 141.3125 33.265625 C 141.496094 33.082031 141.703125 32.941406 141.941406 32.84375 C 142.179688 32.746094 142.425781 32.695312 142.683594 32.695312 C 142.941406 32.695312 143.1875 32.746094 143.425781 32.84375 C 143.664062 32.941406 143.875 33.082031 144.054688 33.265625 C 144.238281 33.445312 144.378906 33.65625 144.476562 33.894531 C 144.574219 34.132812 144.625 34.378906 144.625 34.636719 Z M 144.625 34.636719 "/><path style=" stroke:none;fill-rule:nonzero;fill:#f1592a;fill-opacity:1;" d="M 89.355469 94.753906 L 104.867188 94.753906 C 109.136719 94.753906 112.625 91.261719 112.625 86.996094 L 112.625 71.480469 C 112.625 67.214844 109.136719 63.726562 104.867188 63.726562 L 89.355469 63.726562 C 85.085938 63.726562 81.597656 67.214844 81.597656 71.480469 L 81.597656 86.996094 C 81.597656 91.261719 85.085938 94.753906 89.355469 94.753906 Z M 85.476562 71.480469 C 85.476562 69.34375 87.214844 67.605469 89.355469 67.605469 L 104.867188 67.605469 C 107.007812 67.605469 108.746094 69.34375 108.746094 71.480469 L 108.746094 86.996094 C 108.746094 89.136719 107.007812 90.875 104.867188 90.875 L 89.355469 90.875 C 87.214844 90.875 85.476562 89.136719 85.476562 86.996094 Z M 85.476562 71.480469 "/><g clip-rule="nonzero" clip-path="url(#f7db497076)"><path style=" stroke:none;fill-rule:nonzero;fill:#f1592a;fill-opacity:1;" d="M 72.871094 265.410156 L 181.46875 265.410156 C 183.402344 265.410156 185.246094 265.039062 186.953125 264.386719 C 186.109375 263.09375 185.402344 261.667969 184.90625 260.109375 C 184.589844 259.113281 184.386719 258.109375 184.257812 257.117188 C 183.390625 257.453125 182.457031 257.65625 181.46875 257.65625 L 72.871094 257.65625 C 68.59375 257.65625 65.113281 254.175781 65.113281 249.898438 L 65.113281 238.261719 L 179.632812 238.261719 C 178.53125 237 177.332031 235.710938 176.03125 234.382812 L 65.113281 234.382812 L 65.113281 48.210938 L 189.226562 48.210938 L 189.226562 134.449219 C 191.851562 134.992188 194.335938 136.066406 196.472656 137.617188 C 196.640625 137.546875 196.816406 137.496094 196.984375 137.429688 L 196.984375 32.695312 C 196.984375 24.164062 190.003906 17.183594 181.46875 17.183594 L 72.871094 17.183594 C 64.335938 17.183594 57.355469 24.164062 57.355469 32.695312 L 57.355469 249.898438 C 57.355469 258.429688 64.335938 265.410156 72.871094 265.410156 Z M 65.113281 32.695312 C 65.113281 28.417969 68.59375 24.9375 72.871094 24.9375 L 181.46875 24.9375 C 185.746094 24.9375 189.226562 28.417969 189.226562 32.695312 L 189.226562 44.332031 L 65.113281 44.332031 Z M 65.113281 32.695312 "/></g><g clip-rule="nonzero" clip-path="url(#a6477c821c)"><path style=" stroke:none;fill-rule:nonzero;fill:#f1592a;fill-opacity:1;" d="M 244.507812 231.386719 C 244.621094 227.925781 244.902344 221.3125 245.511719 217.769531 C 248.785156 198.746094 242.570312 180.570312 236.558594 162.996094 C 235.324219 159.390625 234.09375 155.796875 232.957031 152.222656 C 231.21875 146.753906 226.21875 143.082031 220.515625 143.082031 C 219.179688 143.082031 217.855469 143.289062 216.574219 143.699219 C 215.195312 144.140625 213.898438 144.816406 212.738281 145.691406 C 209.367188 142.425781 204.257812 141.160156 199.726562 142.617188 C 198.234375 143.09375 196.851562 143.835938 195.632812 144.808594 C 193.183594 141.703125 189.453125 139.855469 185.410156 139.855469 C 184.078125 139.855469 182.753906 140.0625 181.476562 140.472656 C 180.835938 140.675781 180.21875 140.925781 179.628906 141.222656 L 167.671875 103.683594 C 165.597656 98.257812 160.75 94.753906 155.332031 94.753906 C 154.003906 94.753906 152.671875 94.964844 151.371094 95.382812 C 144.535156 97.570312 140.753906 104.953125 142.945312 111.835938 L 160.53125 167.085938 C 155.359375 161.609375 150.085938 158.839844 144.785156 158.839844 C 140.957031 158.839844 137.066406 160.492188 134.378906 163.257812 C 132.144531 165.558594 130.964844 168.46875 131.054688 171.449219 C 131.242188 177.875 136.257812 182.402344 140.289062 186.035156 L 140.738281 186.441406 C 147.4375 192.5 153.210938 199.714844 158.789062 206.695312 C 164.160156 213.414062 169.714844 220.359375 176.164062 226.382812 C 184.640625 234.304688 189.886719 241.011719 193.027344 247.90625 C 190.308594 250.066406 189.140625 254.234375 190.449219 258.34375 C 191.773438 262.503906 195.257812 265.410156 198.925781 265.410156 C 199.632812 265.410156 200.328125 265.300781 200.996094 265.089844 L 247.984375 250.046875 C 252.183594 248.703125 254.289062 243.492188 252.679688 238.429688 C 251.390625 234.382812 248.0625 231.542969 244.507812 231.386719 Z M 178.8125 223.550781 C 172.570312 217.71875 167.105469 210.882812 161.820312 204.273438 C 156.140625 197.171875 150.273438 189.832031 143.339844 183.566406 L 142.886719 183.15625 C 139.222656 179.851562 135.070312 176.105469 134.929688 171.335938 C 134.859375 168.871094 136.105469 167.050781 137.164062 165.960938 C 139.105469 163.960938 142.027344 162.71875 144.820312 162.71875 C 149.765625 162.71875 154.933594 166.042969 160.179688 172.601562 C 161.734375 174.546875 162.675781 175.234375 163.777344 175.234375 C 164.496094 175.234375 165.144531 174.898438 165.5625 174.316406 C 165.851562 173.914062 166.535156 172.964844 165.40625 169.617188 L 146.640625 110.660156 C 145.097656 105.8125 147.75 100.613281 152.554688 99.074219 C 157.25 97.570312 162.199219 100.234375 164.011719 104.964844 L 177.558594 147.5 L 179.761719 145.722656 C 180.621094 145.027344 181.59375 144.507812 182.65625 144.164062 C 186.820312 142.835938 191.570312 144.859375 193.5625 148.726562 L 194.890625 151.304688 L 196.765625 149.089844 C 197.871094 147.785156 199.304688 146.824219 200.90625 146.308594 C 204.574219 145.140625 208.722656 146.507812 211.015625 149.585938 L 212.382812 151.417969 L 213.96875 149.765625 C 215.019531 148.671875 216.328125 147.851562 217.753906 147.394531 C 218.652344 147.105469 219.582031 146.960938 220.515625 146.960938 C 224.523438 146.960938 228.035156 149.546875 229.261719 153.398438 C 230.410156 157 231.644531 160.617188 232.886719 164.253906 C 238.742188 181.367188 244.792969 199.066406 241.6875 217.113281 C 240.976562 221.269531 240.691406 229 240.605469 232.164062 L 196.542969 246.210938 C 192.214844 236.792969 184.851562 229.195312 178.8125 223.550781 Z M 246.800781 246.351562 L 199.8125 261.394531 C 197.683594 262.070312 195.074219 260.089844 194.144531 257.167969 C 193.199219 254.1875 194.195312 251.09375 196.324219 250.414062 L 243.3125 235.371094 C 243.597656 235.28125 243.894531 235.234375 244.199219 235.234375 C 246.164062 235.234375 248.175781 237.070312 248.984375 239.605469 C 249.929688 242.582031 248.929688 245.671875 246.800781 246.351562 Z M 246.800781 246.351562 "/></g><path style=" stroke:none;fill-rule:nonzero;fill:#f1592a;fill-opacity:1;" d="M 80.628906 106.390625 C 80.628906 107.460938 81.496094 108.328125 82.566406 108.328125 L 136.523438 108.328125 C 136.492188 107.015625 136.585938 105.71875 136.820312 104.449219 L 82.566406 104.449219 C 81.496094 104.449219 80.628906 105.320312 80.628906 106.390625 Z M 80.628906 106.390625 "/><path style=" stroke:none;fill-rule:nonzero;fill:#f1592a;fill-opacity:1;" d="M 82.566406 119.964844 L 139.425781 119.964844 L 138.191406 116.085938 L 82.566406 116.085938 C 81.496094 116.085938 80.628906 116.953125 80.628906 118.023438 C 80.628906 119.097656 81.496094 119.964844 82.566406 119.964844 Z M 82.566406 119.964844 "/><path style=" stroke:none;fill-rule:nonzero;fill:#f1592a;fill-opacity:1;" d="M 82.566406 131.601562 L 143.128906 131.601562 L 141.894531 127.722656 L 82.566406 127.722656 C 81.496094 127.722656 80.628906 128.589844 80.628906 129.660156 C 80.628906 130.730469 81.496094 131.601562 82.566406 131.601562 Z M 82.566406 131.601562 "/><path style=" stroke:none;fill-rule:nonzero;fill:#f1592a;fill-opacity:1;" d="M 82.566406 143.234375 L 146.832031 143.234375 L 145.597656 139.359375 L 82.566406 139.359375 C 81.496094 139.359375 80.628906 140.226562 80.628906 141.296875 C 80.628906 142.367188 81.496094 143.234375 82.566406 143.234375 Z M 82.566406 143.234375 "/></g></svg>